<svg xmlns="http://www.w3.org/2000/svg" xmlns:xlink="http://www.w3.org/1999/xlink" preserveAspectRatio="xMidYMid" width="18" height="20" viewBox="0 0 18 20">
  <defs>
    <style>
      .cls-1 {
        fill: #5fac9e;
        fill-rule: evenodd;
      }
    </style>
  </defs>
  <path d="M17.254,20.000 C17.252,20.000 17.250,19.999 17.248,19.999 L0.757,19.999 C0.755,19.999 0.753,20.000 0.751,20.000 C0.336,20.000 -0.000,19.469 -0.000,18.996 C-0.000,18.523 0.336,17.992 0.751,17.992 L0.751,17.969 L17.254,17.969 L17.254,17.992 C17.669,17.992 18.005,18.523 18.005,18.996 C18.005,19.469 17.669,20.000 17.254,20.000 ZM9.923,14.413 C9.918,14.419 9.916,14.425 9.911,14.430 L9.658,14.696 C9.519,14.844 9.334,14.916 9.150,14.915 C8.965,14.916 8.781,14.844 8.640,14.696 L8.387,14.430 C8.382,14.425 8.381,14.418 8.376,14.413 L4.135,10.649 C3.855,10.356 3.902,9.911 4.216,9.588 C4.434,9.406 4.944,9.239 5.401,9.796 L8.398,12.621 C8.398,12.605 8.394,12.590 8.394,12.573 L8.394,0.859 C8.394,0.303 8.731,-0.006 9.146,-0.006 C9.560,-0.006 9.897,0.303 9.897,0.859 L9.897,12.573 C9.897,12.594 9.893,12.614 9.892,12.635 L12.991,9.733 C13.431,9.160 13.902,9.311 14.207,9.584 C14.489,9.880 14.536,10.292 14.256,10.586 L9.923,14.413 Z" class="cls-1"/>
</svg>
