<svg xmlns="http://www.w3.org/2000/svg" xmlns:xlink="http://www.w3.org/1999/xlink" preserveAspectRatio="xMidYMid" width="16" height="20.906" viewBox="0 0 16 20.906">
  <defs>
    <style>
      .cls-1 {
        fill: #999;
        fill-rule: evenodd;
      }
    </style>
  </defs>
  <path d="M14.000,20.906 L2.000,20.906 L-0.000,20.906 L-0.000,18.906 L-0.000,10.906 L-0.000,8.906 L5.000,8.906 L5.000,10.906 L2.000,10.906 L2.000,18.906 L14.000,18.906 L14.000,10.906 L11.000,10.906 L11.000,8.906 L16.000,8.906 L16.000,10.906 L16.000,18.906 L16.000,20.906 L14.000,20.906 ZM11.991,5.173 L8.892,2.271 C8.893,2.292 8.897,2.312 8.897,2.333 L8.897,14.047 C8.897,14.603 8.561,14.912 8.146,14.912 C7.731,14.912 7.395,14.603 7.395,14.047 L7.395,2.333 C7.395,2.316 7.397,2.301 7.398,2.285 L4.401,5.110 C3.944,5.667 3.434,5.500 3.216,5.318 C2.902,4.995 2.855,4.551 3.135,4.257 L7.376,0.493 C7.381,0.488 7.382,0.481 7.387,0.476 L7.640,0.210 C7.781,0.062 7.965,-0.010 8.150,-0.009 C8.334,-0.010 8.519,0.062 8.658,0.210 L8.911,0.476 C8.916,0.481 8.918,0.487 8.923,0.493 L13.256,4.320 C13.536,4.614 13.489,5.026 13.207,5.322 C12.902,5.595 12.431,5.746 11.991,5.173 Z" class="cls-1"/>
</svg>
